<?xml version="1.0" encoding="utf-8"?>
<!-- Generator: Adobe Illustrator 22.0.1, SVG Export Plug-In . SVG Version: 6.00 Build 0)  -->
<svg version="1.1" id="图层_1" xmlns="http://www.w3.org/2000/svg" xmlns:xlink="http://www.w3.org/1999/xlink" x="0px" y="0px"
	 viewBox="0 0 314.5 449.4" style="enable-background:new 0 0 314.5 449.4;" xml:space="preserve">
<style type="text/css">
	.st0{fill:#FFFFFF;}
	.st1{enable-background:new    ;}
</style>
<title>资源 2</title>
<g id="图层_2_1_">
	<g id="图层_1-2">
		<g id="Logo">
			<g>
				<path class="st0" d="M80.3,30.9v-7.1h-3.4l-0.6-2.5h1.4l4.6-6.8h6.9l-3.7,5.7h1.6v10.7H80.3z M92.2,43.8v-6.5H76.4v-3.5h15.8
					v-3.1h7.4v3.1h15.8v3.5H99.5v6.5H92.2z M113.3,16.5v3.9l-10.1,2.2v4.3h11.2l-1.4,3.5H96.5V24l-6.4,1.4v-3.9l6.4-1.4v-5.5h6.7v4
					L113.3,16.5z"/>
			</g>
			<g>
				<path class="st0" d="M155.2,28.3v3.6h-10.3v11.9H138V31.9h-10.3v-3.6H138V26h-8.5V15.8l-4.8,8.5h1v19.4h-6.3V27.1h-1.9l-1.1-4.4
					h1.9l4.7-8.2h7.1l-0.3,0.6h23.6V26H147v-3.4l-1.1,3.4h-1.1v2.3L155.2,28.3z M128.8,43l-1.2-3.6h1.6l1.2-6.3h6.6l-1.6,9.9H128.8z
					 M147,22.6v-3.8h-11v3.8H147z M147.3,43l-1.6-9.9h6.6l1.2,6.3h1.6l-1.2,3.6H147.3z"/>
			</g>
			<g>
				<path class="st0" d="M162.9,43.8V24.6h-5v-3.5h5v-2.8H158v-3.2h16.8l-1.9,3.2h-3.1v2.8h5.1v3.5h-5.1v19.2H162.9z M158,43.8V25.9
					h3.7v17.9H158z M171.1,43.8V25.9h3.6v17.9H171.1z M180.4,23.7l-4.5-7.4h6.5l3,4.8h1.2l-1,2.6H180.4z M180.6,32.7l-4.5-7.5h6.5
					l3.1,4.9h1.2l-1,2.6H180.6z M187.1,43.8v-5.8h-10.6v-3.7h10.6V14.6h7.2v19.7h2.6v3.7h-2.6v5.8L187.1,43.8z"/>
			</g>
			<g>
				<path class="st0" d="M213.1,18.1v3.6h-3.1v5.4l3.1-0.7v4.1l-3.1,0.8v12.6h-8.1l-1.5-3.4h2.5v-7.6l-3.4,0.8v-4.1l3.4-0.8v-7h-3.4
					v-3.6h3.4v-3.3h7.1v3.3H213.1z M238.2,25.5c-0.7,4.1-3.1,8.1-7,11.3c2.2,1,4.6,1.8,7,2.3v4.6c-4.1-0.5-8.1-1.7-11.8-3.6
					c-3.6,1.9-7.6,3.1-11.6,3.6v-4.6c2.3-0.5,4.6-1.2,6.7-2.3c-2.4-1.8-4.3-4.2-5.7-6.8h6.7c1,1.5,2.3,2.7,3.7,3.8
					c1.6-1.3,3-2.9,4-4.8h-15.3v-3.5h7.9v-4H214v-3.6h8.8v-3.1h6.8v3.1h8.8v3.6h-8.8v4L238.2,25.5z"/>
			</g>
			<g>
				<path class="st0" d="M86.3,57.4h-6.2v5.7h-2.3V49.9h2.3v5.6h6.2v-5.6h2.3v13.2h-2.3V57.4z"/>
			</g>
			<g>
				<path class="st0" d="M101.2,61.4c1.9,0,2.9-0.8,2.9-2.6v-9h2.3v9c0,3.2-1.8,4.5-5.3,4.5s-5.2-1.3-5.2-4.5v-9h2.3v9
					C98.3,60.7,99.3,61.4,101.2,61.4z"/>
			</g>
			<g>
				<path class="st0" d="M115.9,49.9h4.6l3.5,13.2h-2.3l-0.8-2.8h-5.5l-0.8,2.8h-2.3L115.9,49.9z M115.9,58.4h4.6l-1.8-6.7h-1
					L115.9,58.4z"/>
			</g>
			<g>
				<path class="st0" d="M135.6,49.9c2.8,0,4.4,1,4.4,3.4c0.2,1.3-0.5,2.5-1.7,3c1.3,0.4,2.2,1.7,2,3.1c0,2.7-1.8,3.7-4.5,3.7h-5.6
					V49.9H135.6z M132.5,51.7v3.8h3c1.4,0,2-0.7,2-2s-0.7-1.8-2.1-1.8L132.5,51.7z M132.5,57.3v3.9h3.1c1.4,0,2.3-0.4,2.3-2
					s-1.2-1.9-2.3-1.9L132.5,57.3z"/>
			</g>
			<g>
				<path class="st0" d="M149.2,49.9h4.6l3.5,13.2H155l-0.8-2.8h-5.5l-0.8,2.8h-2.3L149.2,49.9z M149.2,58.4h4.6l-1.7-6.7h-1
					L149.2,58.4z"/>
			</g>
			<g>
				<path class="st0" d="M162.6,56.5c0-4.4,1.4-6.9,5.8-6.9s5.8,2.5,5.8,6.9s-1.3,6.8-5.8,6.8S162.6,61,162.6,56.5z M171.8,56.5
					c0-3.3-0.6-5-3.4-5s-3.4,1.7-3.4,5s0.6,4.9,3.4,4.9S171.8,59.9,171.8,56.5z"/>
			</g>
			<g>
				<path class="st0" d="M179.4,49.9h10.4v1.9h-4v11.3h-2.3V51.8h-4.1L179.4,49.9z"/>
			</g>
			<g>
				<path class="st0" d="M195.9,49.9h9v1.9h-6.7v3.8h5.4v1.9h-5.4v3.9h6.7v1.9h-9V49.9z"/>
			</g>
			<g>
				<path class="st0" d="M220.2,62.9c-1.3,0.3-2.7,0.4-4.1,0.4c-4.4,0-5.3-2.3-5.3-6.8c0-4.8,1.1-6.8,5.3-6.8c1.4,0,2.7,0.2,4.1,0.5
					l-0.1,1.7c-1.2-0.2-2.4-0.3-3.7-0.3c-2.6,0-3.3,1.2-3.3,4.9s0.5,4.9,3.3,4.9c1.2,0,2.4-0.1,3.6-0.3L220.2,62.9z"/>
			</g>
			<g>
				<path class="st0" d="M235.3,57.4h-6.1v5.7h-2.3V49.9h2.3v5.6h6.1v-5.6h2.3v13.2h-2.3V57.4z"/>
			</g>
			<g>
				<path class="st0" d="M22.9,28.3c3,1.1,6.3-0.4,7.4-3.4c1.1-3-0.4-6.3-3.4-7.4s-6.3,0.4-7.4,3.4c-0.5,1.4-0.5,2.9,0.1,4.2
					l-7.8,7.8c0-4.5,0-10.5,0-18.4l18.9-3.3l15.3,2.7l3.5-3.5L30.7,7.1L7.1,11.2c0,18.4-0.2,27.6,0,32.8L22.9,28.3z M27.7,22.9
					c0,3.9-6.1,3.6-5.6-0.4c0.2-1.5,1.6-2.6,3.1-2.5C26.6,20.2,27.7,21.4,27.7,22.9z"/>
			</g>
			<g>
				<path class="st0" d="M49.6,20.6c0,29.1,0,24.3,0,25c-0.2,8.6-11.3,16.3-18.9,20.2c-2.5-1.3-4.9-2.8-7.3-4.4l8.1-8.1
					c3,1.1,6.3-0.5,7.4-3.5c1.1-3-0.5-6.3-3.5-7.4c-3-1.1-6.3,0.5-7.4,3.5c-0.5,1.4-0.4,2.9,0.1,4.2L16.7,61.5
					c0.6,0.5,1.2,1,1.8,1.5l0,0c3.8,2.9,7.9,5.3,12.2,7.3c4.3-2,8.4-4.4,12.2-7.3l0,0c3.7-2.7,6.8-6,9.1-9.9l0,0
					c2.9-5.1,2.2-5.2,2.2-37.2L49.6,20.6z M33.9,45.1c1.5,0.2,2.6,1.7,2.4,3.2c-0.2,1.4-1.4,2.4-2.8,2.4
					C29.5,50.7,29.8,44.5,33.9,45.1z"/>
			</g>
			<g>
				<path class="st0" d="M59.5,0c-3.2,0-5.8,2.6-5.8,5.8c0,0.6,0.1,1.3,0.3,1.9C47.2,14.5,11.2,50.5,7.7,54c-3-1.1-6.3,0.5-7.4,3.5
					c-1.1,3,0.5,6.3,3.5,7.4c3,1.1,6.3-0.5,7.4-3.5c0.5-1.4,0.4-2.9-0.1-4.2l46.1-46.1c2.9,1.3,6.3-0.1,7.6-3s-0.1-6.3-3-7.6
					C61,0.2,60.3,0,59.5,0z M3,59.4c0-3.9,6-3.7,5.6,0.2c-0.1,1.5-1.5,2.7-3,2.6C4.1,62.1,3,60.9,3,59.4z M59.5,8.6
					c-1.6,0-2.8-1.3-2.8-2.8S57.9,3,59.5,3c1.5,0,2.8,1.3,2.8,2.8C62.3,7.3,61,8.6,59.5,8.6C59.5,8.6,59.5,8.6,59.5,8.6z"/>
			</g>
		</g>
		<g class="st1">
			<path class="st0" d="M5.3,411.9c-0.5,0.4-1,0.9-1.5,1.2c-0.1-0.2-0.5-0.5-0.6-0.7c1.3-0.8,2.5-2,3.3-3.3l0.8,0.3
				C7,410,6.6,410.5,6.1,411v4.1H5.3V411.9z M13.9,417.4H9v2.7H8.1v-2.7H3.2v-0.9h4.9v-1.4H9v1.4h4.9V417.4z M8.9,412.5
				c-0.6,0.2-1.2,0.3-1.7,0.5c-0.1-0.2-0.2-0.5-0.3-0.7c0.7-0.2,1.4-0.4,2.1-0.6v-2.4h0.9v2.1c1.2-0.4,2.3-0.9,3-1.4l0.7,0.7
				c-1,0.6-2.3,1.2-3.7,1.6v1.3c0,0.4,0.1,0.5,0.7,0.5h1.9c0.4,0,0.5-0.2,0.6-1.3c0.2,0.2,0.6,0.3,0.8,0.3c-0.1,1.4-0.4,1.8-1.3,1.8
				h-2.1c-1.1,0-1.5-0.3-1.5-1.2V412.5z"/>
			<path class="st0" d="M18.7,409.4c-0.3,0.9-0.8,1.7-1.2,2.5v8.1h-0.9v-6.8c-0.4,0.6-0.9,1.1-1.3,1.5c-0.1-0.2-0.3-0.7-0.5-0.9
				c1.2-1.1,2.3-2.9,3-4.7L18.7,409.4z M23.1,415.8c0.8,1.3,2,2.5,3.2,3.1c-0.2,0.2-0.5,0.5-0.6,0.7c-1.1-0.7-2.2-1.9-3-3.3v3.8
				h-0.9v-3.7c-0.8,1.3-2,2.5-3.2,3.2c-0.2-0.2-0.4-0.5-0.6-0.7c1.2-0.6,2.5-1.8,3.3-3.1h-3V415h3.5v-1.5h-2.6v-3.8h6.2v3.8h-2.7
				v1.5h3.4v0.8H23.1z M19.9,412.7h4.4v-2.2h-4.4V412.7z"/>
			<path class="st0" d="M31.3,416.9c0,0.2,0.2,0.6,0.3,0.7c-2.2,1.7-2.5,2-2.7,2.2c-0.1-0.2-0.4-0.4-0.6-0.6
				c0.3-0.2,0.8-0.7,0.8-1.4v-4.1h-1.9v-0.9h2.7v5L31.3,416.9z M30,411.8c-0.4-0.5-1.2-1.3-1.8-1.8l0.6-0.6c0.6,0.5,1.4,1.3,1.8,1.8
				L30,411.8z M38,418.8v0.9h-7.3v-0.9h2.9v-9.6h0.9v3.8h2.6v0.9h-2.6v4.9H38z"/>
			<path class="st0" d="M41.6,412.9c-0.6,0.7-1.4,1.4-2.1,1.8c-0.1-0.2-0.3-0.5-0.5-0.7c0.8-0.4,1.7-1.1,2.3-1.9h-2.2v-0.7h2.5v-2.2
				h0.8v2.2h2.4v0.7h-2.3c0.6,0.3,1.6,1,1.9,1.2l-0.5,0.6c-0.3-0.3-1-0.9-1.6-1.3v1.6h-0.8V412.9z M43.5,419.2
				c-0.3-0.2-0.6-0.4-1-0.7c-0.9,0.7-1.9,1.2-3,1.4c-0.1-0.2-0.3-0.5-0.4-0.7c1-0.2,1.9-0.6,2.7-1.2c-0.6-0.3-1.2-0.6-1.8-0.8
				c0.3-0.4,0.5-0.8,0.8-1.3h-1.2v-0.8H41c0.1-0.3,0.2-0.5,0.3-0.8l0.8,0.1c-0.1,0.2-0.2,0.4-0.3,0.6h2l0.1,0l0.5,0.2
				c-0.3,1-0.8,1.9-1.4,2.5c0.4,0.2,0.7,0.4,1,0.6L43.5,419.2z M40.4,411.3c-0.1-0.4-0.4-1.1-0.7-1.6l0.6-0.3
				c0.3,0.5,0.7,1.1,0.8,1.5L40.4,411.3z M41.5,416.1c-0.2,0.3-0.4,0.7-0.5,0.9c0.4,0.2,0.9,0.4,1.4,0.6c0.5-0.4,0.9-1,1.1-1.6H41.5
				z M44.6,409.7c-0.3,0.5-0.7,1.1-1.1,1.5L43,411c0.3-0.4,0.7-1.1,0.9-1.6L44.6,409.7z M49.1,412.3c-0.3,1.8-0.7,3.3-1.3,4.5
				c0.6,1.1,1.4,2,2.4,2.5c-0.2,0.2-0.5,0.5-0.6,0.7c-0.9-0.6-1.7-1.4-2.3-2.4c-0.7,1-1.6,1.9-2.8,2.5c-0.1-0.2-0.3-0.6-0.5-0.7
				c1.3-0.6,2.2-1.5,2.9-2.7c-0.5-0.9-0.8-2-1.1-3.2c-0.2,0.6-0.5,1.1-0.8,1.6c-0.1-0.1-0.5-0.4-0.7-0.5c0.9-1.3,1.5-3.3,1.8-5.3
				l0.8,0.1c-0.1,0.7-0.2,1.4-0.4,2.1h3.4v0.8H49.1z M46.3,412.3c0.2,1.3,0.6,2.5,1,3.6c0.4-1,0.7-2.2,0.9-3.6H46.3z"/>
			<path class="st0" d="M53.4,415.6v3.4c0,0.5-0.1,0.7-0.4,0.9c-0.3,0.1-0.7,0.2-1.5,0.2c0-0.2-0.1-0.6-0.3-0.8c0.5,0,1,0,1.1,0
				c0.1,0,0.2,0,0.2-0.2v-3.1c-0.5,0.2-1,0.3-1.4,0.4l-0.2-0.9c0.4-0.1,1-0.3,1.6-0.5v-2.6h-1.5v-0.8h1.5v-2.4h0.8v2.4h1.4v0.8h-1.4
				v2.4l1.2-0.4l0.1,0.8L53.4,415.6z M59.3,414.8v1.5h2.3v3.8h-0.8v-0.4h-3.7v0.5h-0.8v-3.8h2.1v-1.5h-2.4c-0.1,1.8-0.4,3.8-1.4,5.3
				c-0.1-0.2-0.5-0.4-0.7-0.5c1.2-1.8,1.3-4.4,1.3-6.3v-3.6h6.3v3.1h-2.3v1.3H62v0.8H59.3z M58.5,414.1v-1.3h-2.3v0.5
				c0,0.3,0,0.5,0,0.8H58.5z M56.2,410.4v1.5h4.6v-1.5H56.2z M60.8,417.1h-3.7v1.8h3.7V417.1z"/>
			<path class="st0" d="M67.1,409.4c-0.1,0.2-0.2,0.3-0.2,0.5c1,1,2.2,2.3,2.8,3.2l-0.6,0.6c-0.5-0.8-1.6-2-2.5-3.1
				c-0.8,1.3-1.8,2.5-3,3.4c-0.1-0.2-0.5-0.5-0.6-0.6c1.5-1.1,2.8-2.7,3.4-4.3L67.1,409.4z M67.9,419.1c0.6,0,0.6-0.3,0.7-1.7
				c0.2,0.1,0.5,0.3,0.8,0.3c-0.1,1.7-0.4,2.1-1.4,2.1h-2.2c-1.2,0-1.5-0.3-1.5-1.3v-5.1h4.3c0,0,0,0.3,0,0.4
				c-0.1,2.1-0.2,2.9-0.5,3.2c-0.2,0.2-0.4,0.3-0.7,0.3c-0.2,0-0.7,0-1.2,0c0-0.2-0.1-0.6-0.2-0.8c0.4,0,0.8,0,1,0
				c0.2,0,0.3,0,0.3-0.1c0.1-0.2,0.3-0.8,0.3-2.2h-2.6v4.3c0,0.4,0.1,0.5,0.7,0.5H67.9z M71.1,417.1h-0.9v-6.6h0.9V417.1z
				 M73.4,409.3v9.6c0,0.6-0.2,0.8-0.5,1c-0.4,0.1-1,0.2-2.2,0.2c0-0.2-0.2-0.6-0.3-0.9c0.8,0,1.6,0,1.8,0c0.2,0,0.3-0.1,0.3-0.3
				v-9.6H73.4z"/>
			<path class="st0" d="M77.6,418c0.2,0.1,0.5,0.3,0.9,0.6c0.7,0.4,1.8,0.5,3,0.5c1.4,0,3.4-0.1,4.6-0.2c-0.1,0.2-0.3,0.7-0.3,0.9
				c-1,0.1-3.1,0.1-4.4,0.1c-1.4,0-2.4-0.1-3.2-0.5c-0.4-0.3-0.8-0.6-1-0.6c-0.4,0-1,0.6-1.6,1.2l-0.6-0.8c0.5-0.5,1.1-0.9,1.6-1.1
				v-3.6h-1.6v-0.8h2.4V418z M77.2,412c-0.3-0.5-1.1-1.4-1.8-1.9l0.7-0.5c0.7,0.6,1.5,1.3,1.8,1.9L77.2,412z M79.8,411.4
				c-0.3,0.5-0.5,0.9-0.8,1.2c-0.2-0.1-0.6-0.3-0.7-0.4c0.7-0.7,1.3-1.8,1.6-2.9l0.8,0.2c-0.1,0.4-0.3,0.8-0.4,1.2h1.5v-1.5h0.9v1.5
				h2.8v0.8h-2.8v1.5h3.3v0.8h-7.6v-0.8h3.4v-1.5H79.8z M79.2,418v-3.3h5.8v3.3H79.2z M80,417.3h4.1v-1.9H80V417.3z"/>
			<path class="st0" d="M90.6,409.4c-0.3,0.9-0.7,1.8-1.2,2.6v8.1h-0.9v-6.6c-0.3,0.5-0.7,0.9-1,1.3c-0.1-0.2-0.4-0.7-0.5-0.9
				c1.1-1.2,2.1-3,2.7-4.8L90.6,409.4z M94.6,409.3c-0.1,0.2-0.2,0.4-0.3,0.5c0.9,1.4,2.4,2.9,3.8,3.6c-0.2,0.2-0.5,0.5-0.6,0.7
				c-1.3-0.7-2.6-2.1-3.6-3.5c-0.8,1.4-2.1,2.7-3.8,3.7c-0.1-0.2-0.4-0.5-0.6-0.7c2.1-1.2,3.4-3,4-4.5L94.6,409.3z M91.8,413.8h0.9
				v1.6c0,1.4-0.2,3.3-2.1,4.8c-0.1-0.2-0.4-0.5-0.6-0.6c1.7-1.2,1.9-3,1.9-4.1V413.8z M95.2,413.8h0.9v6.3h-0.9V413.8z"/>
			<path class="st0" d="M102.5,409.4c-0.3,0.9-0.7,1.9-1.2,2.7v7.9h-0.8v-6.6c-0.3,0.5-0.7,0.9-1,1.3c-0.1-0.2-0.3-0.7-0.5-0.9
				c1.1-1.2,2.1-2.9,2.8-4.8L102.5,409.4z M110,419v0.8h-8V419h1.1v-6.7h2.1c0.1-0.3,0.1-0.7,0.2-1.1h-2.9v-0.8h3.1
				c0.1-0.4,0.1-0.9,0.2-1.2l0.9,0.1c-0.1,0.4-0.1,0.8-0.2,1.2h3.2v0.8h-3.4c-0.1,0.4-0.2,0.8-0.3,1.1h2.9v6.7H110z M103.9,413v1
				h4.2v-1H103.9z M108.1,414.6h-4.2v1h4.2V414.6z M103.9,417.3h4.2v-1h-4.2V417.3z M103.9,419h4.2v-1h-4.2V419z"/>
		</g>
		<g class="st1">
			<path class="st0" d="M13.3,443.2c-0.5,1-1.2,2-2.1,2.8c0.5,1.3,1,2,1.6,2c0.3,0,0.5-0.6,0.5-2.1c0.2,0.2,0.5,0.4,0.8,0.5
				c-0.2,2-0.5,2.6-1.4,2.6c-0.9,0-1.7-0.8-2.2-2.2c-0.8,0.7-1.6,1.3-2.5,1.8c-0.1-0.2-0.4-0.5-0.6-0.7c1-0.5,2-1.2,2.8-1.9
				c-0.3-1-0.5-2.2-0.7-3.5H6.7v1.9c0.7-0.2,1.4-0.3,2.1-0.5l0.1,0.8c-0.7,0.2-1.5,0.3-2.2,0.5v2.7c0,0.6-0.1,0.8-0.5,1
				c-0.4,0.1-1,0.2-2,0.2c0-0.2-0.2-0.6-0.3-0.9c0.8,0,1.5,0,1.7,0c0.2,0,0.3-0.1,0.3-0.3v-2.4c-0.9,0.2-1.8,0.4-2.5,0.6l-0.3-0.9
				c0.7-0.1,1.7-0.3,2.7-0.5v-2.1H3.2v-0.9h2.6v-1.9c-0.7,0.1-1.5,0.3-2.2,0.4c0-0.2-0.2-0.5-0.3-0.7c1.7-0.3,3.6-0.7,4.7-1.1
				l0.6,0.7c-0.6,0.2-1.3,0.4-2,0.6v2.1h2.7c-0.1-1.1-0.2-2.2-0.2-3.4h0.9c0,1.2,0,2.4,0.1,3.4h3.5v0.9h-3.4c0.1,1,0.3,1.9,0.5,2.7
				c0.6-0.7,1.2-1.4,1.6-2.2L13.3,443.2z M12.8,440.8c-0.4-0.6-1.2-1.4-1.9-2l0.7-0.5c0.7,0.6,1.5,1.4,1.9,2L12.8,440.8z"/>
			<path class="st0" d="M18.1,438.2c-0.2,0.9-0.6,1.7-0.9,2.6v8.1h-0.9v-6.4c-0.3,0.5-0.5,0.9-0.8,1.3c-0.1-0.2-0.3-0.7-0.5-0.9
				c0.9-1.2,1.8-3,2.3-4.9L18.1,438.2z M18.6,440.3h0.9v8.6h-0.9V440.3z M19.8,437.9c0.5,0.7,1.2,1.7,1.4,2.3l-0.7,0.4
				c-0.3-0.6-0.9-1.6-1.4-2.3L19.8,437.9z M25.5,447.8c0,0.6-0.1,0.8-0.5,0.9c-0.4,0.1-1,0.2-1.9,0.2c0-0.2-0.2-0.6-0.3-0.9
				c0.7,0,1.3,0,1.5,0c0.2,0,0.3-0.1,0.3-0.3v-8.6h-3.2v-0.8h4.1V447.8z"/>
			<path class="st0" d="M36.7,439.6v9.3h-0.9v-0.6h-6.4v0.7h-0.9v-9.3h3c0.2-0.5,0.4-1.2,0.5-1.6l1,0.1c-0.2,0.5-0.4,1.1-0.6,1.5
				H36.7z M29.4,440.4v1.8h6.4v-1.8H29.4z M29.4,443v1.7h6.4V443H29.4z M35.8,447.4v-1.8h-6.4v1.8H35.8z"/>
			<path class="st0" d="M49.1,440.3v8.6h-0.9v-0.7h-7.4v0.7h-0.9v-8.6h4.1V438h0.9v2.3H49.1z M40.8,441.1v2.6h3.2v-2.6H40.8z
				 M40.8,447.3h3.2v-2.7h-3.2V447.3z M44.9,441.1v2.6h3.3v-2.6H44.9z M48.2,447.3v-2.7h-3.3v2.7H48.2z"/>
			<path class="st0" d="M58.9,444.8h2.7v0.8h-2.7v2.2c0,0.5-0.1,0.7-0.5,0.9c-0.4,0.1-1,0.2-1.9,0.1c0-0.2-0.2-0.6-0.3-0.8
				c0.7,0,1.4,0,1.6,0c0.2,0,0.3,0,0.3-0.2v-2.2H58c-1.5,1.3-4.1,2.3-6.3,2.8c-0.1-0.2-0.4-0.6-0.5-0.7c2-0.4,4.2-1.1,5.6-2h-4.4
				c0.2-0.6,0.4-1.5,0.5-2.1l0.9,0.1c-0.1,0.4-0.2,0.9-0.3,1.3h4.6v-1.6h-5.8v-0.8h0.1l-0.4-0.6c1-0.3,2.3-0.9,3.2-1.5l0.7,0.4
				c-0.9,0.7-2.1,1.3-3.2,1.7h8c-0.7-0.5-2.1-1.1-3.2-1.5l0.4-0.6c1.1,0.4,2.5,1,3.3,1.5l-0.4,0.6h0.6v0.8h-2.3V444.8z M61.6,439.1
				v1.9h-0.9v-1.1h-8.3v1.1h-0.9v-1.9h4.7c-0.2-0.3-0.4-0.7-0.6-1l0.9-0.3c0.3,0.4,0.7,0.9,0.8,1.3H61.6z"/>
			<path class="st0" d="M66.4,444.3c-0.2-0.4-0.5-1.1-0.8-1.6v6.2h-0.9v-5.5c-0.4,1.2-0.9,2.4-1.3,3.1c-0.1-0.3-0.3-0.6-0.5-0.9
				c0.7-1,1.5-2.9,1.8-4.5h-1.5v-0.8h1.5v-2.3h0.9v2.3h1.3v0.8h-1.3v0.5c0.3,0.4,1.2,1.8,1.4,2.1L66.4,444.3z M73.1,444.3
				c-0.4,1.1-1.1,2-2,2.7c0.8,0.5,1.8,0.9,3,1.1c-0.2,0.2-0.4,0.5-0.5,0.7c-1.2-0.3-2.3-0.8-3.1-1.3c-1,0.7-2.2,1.1-3.5,1.4
				c-0.1-0.2-0.3-0.6-0.5-0.7c1.2-0.2,2.3-0.6,3.3-1.1c-0.6-0.5-1-1-1.3-1.5c-0.4,0.3-0.8,0.7-1.2,0.9c-0.1-0.2-0.4-0.5-0.6-0.6
				c1.1-0.7,2.3-1.8,3-2.9l0.8,0.3c-0.2,0.3-0.4,0.6-0.7,0.9h2.7l0.2,0L73.1,444.3z M69.8,441.6c-0.7,0.8-1.7,1.7-2.5,2.3
				c-0.1-0.2-0.4-0.5-0.6-0.6c0.8-0.5,1.7-1.3,2.3-2L69.8,441.6z M73,441.4c-0.1-0.2-0.3-0.4-0.5-0.6c-4.2,0.3-4.7,0.4-5.1,0.5
				c0-0.2-0.2-0.6-0.3-0.8c0.2,0,0.4-0.2,0.7-0.5c0.3-0.2,1.2-1.2,1.8-2.1l0.9,0.3c-0.6,0.8-1.2,1.5-1.9,2.1L72,440
				c-0.3-0.4-0.7-0.8-1.1-1.2l0.7-0.4c0.7,0.8,1.7,1.8,2.1,2.5L73,441.4z M68.9,445c0.3,0.6,0.8,1.1,1.5,1.6
				c0.6-0.5,1.2-1.1,1.5-1.8h-2.8L68.9,445z M71.5,441.2c0.8,0.6,1.9,1.5,2.5,2.1l-0.6,0.5c-0.5-0.6-1.6-1.5-2.5-2.2L71.5,441.2z"/>
			<path class="st0" d="M85.8,439.8v0.9h-6.5c-0.4,0.9-0.9,1.7-1.5,2.4v5.8h-0.9v-4.7c-0.4,0.5-0.9,0.9-1.4,1.2
				c-0.1-0.2-0.3-0.6-0.5-0.8c1.4-1,2.4-2.4,3.2-3.9h-2.9v-0.9h3.3c0.3-0.6,0.5-1.2,0.6-1.9l0.9,0.2c-0.2,0.5-0.4,1.1-0.6,1.6H85.8z
				 M82.6,447.8h3.2v0.8h-7.2v-0.8h3.2v-3.4H79v-0.8h2.7v-2.3h0.9v2.3h2.7v0.8h-2.7V447.8z"/>
			<path class="st0" d="M89.6,441.7c-0.6,0.7-1.4,1.4-2.1,1.8c-0.1-0.2-0.3-0.5-0.5-0.7c0.8-0.4,1.7-1.1,2.3-1.9h-2.2v-0.7h2.5v-2.2
				h0.8v2.2h2.4v0.7h-2.3c0.6,0.3,1.6,1,1.9,1.2l-0.5,0.6c-0.3-0.3-1-0.9-1.6-1.3v1.6h-0.8V441.7z M91.5,448c-0.3-0.2-0.6-0.4-1-0.7
				c-0.9,0.7-1.9,1.2-3,1.4c-0.1-0.2-0.3-0.5-0.4-0.7c1-0.2,1.9-0.6,2.7-1.2c-0.6-0.3-1.2-0.6-1.8-0.8c0.3-0.4,0.5-0.8,0.8-1.3h-1.2
				v-0.8H89c0.1-0.3,0.2-0.5,0.3-0.8l0.8,0.1c-0.1,0.2-0.2,0.4-0.3,0.6h2l0.1,0l0.5,0.2c-0.3,1-0.8,1.9-1.4,2.5
				c0.4,0.2,0.7,0.4,1,0.6L91.5,448z M88.4,440.1c-0.1-0.4-0.4-1.1-0.7-1.6l0.6-0.3c0.3,0.5,0.7,1.1,0.8,1.5L88.4,440.1z
				 M89.5,444.9c-0.2,0.3-0.4,0.7-0.5,0.9c0.4,0.2,0.9,0.4,1.4,0.6c0.5-0.4,0.9-1,1.1-1.6H89.5z M92.6,438.5
				c-0.3,0.5-0.7,1.1-1.1,1.5l-0.6-0.3c0.3-0.4,0.7-1.1,0.9-1.6L92.6,438.5z M97.1,441.1c-0.3,1.8-0.7,3.3-1.3,4.5
				c0.6,1.1,1.4,2,2.4,2.5c-0.2,0.2-0.5,0.5-0.6,0.7c-0.9-0.6-1.7-1.4-2.3-2.4c-0.7,1-1.6,1.9-2.8,2.5c-0.1-0.2-0.3-0.6-0.5-0.7
				c1.3-0.6,2.2-1.5,2.9-2.7c-0.5-0.9-0.8-2-1.1-3.2c-0.2,0.6-0.5,1.1-0.8,1.6c-0.1-0.1-0.5-0.4-0.7-0.5c0.9-1.3,1.5-3.3,1.8-5.3
				l0.8,0.1c-0.1,0.7-0.2,1.4-0.4,2.1h3.4v0.8H97.1z M94.3,441.1c0.2,1.3,0.6,2.5,1,3.6c0.4-1,0.7-2.2,0.9-3.6H94.3z"/>
		</g>
		<g class="st1">
			<path class="st0" d="M101.4,444.4v3.4c0,0.5-0.1,0.7-0.4,0.9c-0.3,0.1-0.7,0.2-1.5,0.2c0-0.2-0.1-0.6-0.3-0.8c0.5,0,1,0,1.1,0
				c0.1,0,0.2,0,0.2-0.2v-3.1c-0.5,0.2-1,0.3-1.4,0.4l-0.2-0.9c0.4-0.1,1-0.3,1.6-0.5v-2.6h-1.5v-0.8h1.5v-2.4h0.8v2.4h1.4v0.8h-1.4
				v2.4l1.2-0.4l0.1,0.8L101.4,444.4z M107.3,443.6v1.5h2.3v3.8h-0.8v-0.4h-3.7v0.5h-0.8v-3.8h2.1v-1.5h-2.4
				c-0.1,1.8-0.4,3.8-1.4,5.3c-0.1-0.2-0.5-0.4-0.7-0.5c1.2-1.8,1.3-4.4,1.3-6.3v-3.6h6.3v3.1h-2.3v1.3h2.7v0.8H107.3z M106.5,442.9
				v-1.3h-2.3v0.5c0,0.3,0,0.5,0,0.8H106.5z M104.2,439.2v1.5h4.6v-1.5H104.2z M108.8,445.9h-3.7v1.8h3.7V445.9z"/>
		</g>
		<g class="st1">
			<path class="st0" d="M110.6,448.6c0.9-0.4,1.5-0.9,1.5-1.8c-0.1,0-0.1,0-0.2,0c-0.5,0-0.9-0.3-0.9-0.9s0.4-0.9,0.9-0.9
				c0.7,0,1,0.5,1,1.4c0,1.3-0.8,2.3-2.1,2.7L110.6,448.6z"/>
		</g>
		<g class="st1">
			<path class="st0" d="M120.7,442.1c-1.1,0.5-2.2,1.1-3.1,1.5l-0.3-0.9c0.8-0.3,2.1-0.8,3.3-1.3L120.7,442.1z M119.9,440.2
				c-0.5-0.4-1.4-0.9-2.2-1.2l0.4-0.6c0.8,0.3,1.8,0.7,2.3,1.1L119.9,440.2z M118.8,444.7h7.6v4.3h-0.9v-0.6h-5.7v0.6h-0.9V444.7z
				 M119.7,445.5v2.1h5.7v-2.1H119.7z M124.6,440c0,0.3-0.1,0.5-0.1,0.7c0.5,1.5,1.5,2.5,3.5,2.8c-0.2,0.2-0.4,0.5-0.5,0.8
				c-1.7-0.4-2.7-1.2-3.3-2.5c-0.5,1.2-1.5,2-3.4,2.5c-0.1-0.2-0.3-0.6-0.5-0.7c2.6-0.6,3.3-1.9,3.6-3.6h-1.4
				c-0.3,0.6-0.7,1.1-1,1.6c-0.2-0.1-0.6-0.4-0.8-0.5c0.8-0.8,1.4-2,1.7-3.2l0.9,0.2c-0.1,0.4-0.2,0.8-0.4,1.1h4.2l0.1,0l0.6,0.2
				c-0.3,0.8-0.6,1.7-1,2.3l-0.7-0.2c0.2-0.4,0.4-0.9,0.6-1.4H124.6z"/>
		</g>
		<g class="st1">
			<path class="st0" d="M132.9,445.7c0.1,0.2,0.2,0.6,0.3,0.7c-2,1.5-2.3,1.8-2.5,2c-0.1-0.2-0.3-0.6-0.5-0.8c0.2-0.1,0.6-0.5,0.6-1
				v-4.1h-1.7v-0.9h2.5v4.9L132.9,445.7z M131.6,440.5c-0.3-0.5-1.1-1.3-1.6-1.8l0.6-0.5c0.6,0.5,1.3,1.2,1.7,1.7L131.6,440.5z
				 M139.8,439.7c0,0,0,0.3,0,0.5c-0.2,5.6-0.4,7.5-0.8,8.1c-0.3,0.3-0.5,0.5-0.9,0.5c-0.4,0-1.1,0-1.7,0c0-0.3-0.1-0.6-0.3-0.9
				c0.7,0.1,1.4,0.1,1.7,0.1c0.2,0,0.3,0,0.5-0.2c0.4-0.4,0.6-2.3,0.7-7.3h-4.5c-0.4,0.8-0.9,1.4-1.4,2c-0.2-0.2-0.5-0.4-0.8-0.6
				c1-1,1.8-2.5,2.3-4l0.9,0.2c-0.2,0.5-0.4,1-0.6,1.5H139.8z M134.5,446.5v0.7h-0.8v-5.5h3.7v4.8H134.5z M134.5,442.5v1.3h2.1v-1.3
				H134.5z M136.6,445.8v-1.3h-2.1v1.3H136.6z"/>
		</g>
		<g class="st1">
			<path class="st0" d="M140.6,448.6c0.9-0.4,1.5-0.9,1.5-1.8c-0.1,0-0.1,0-0.2,0c-0.5,0-0.9-0.3-0.9-0.9s0.4-0.9,0.9-0.9
				c0.7,0,1,0.5,1,1.4c0,1.3-0.8,2.3-2.1,2.7L140.6,448.6z"/>
		</g>
		<g class="st1">
			<path class="st0" d="M151.3,447.8c0,0.5-0.1,0.7-0.4,0.9c-0.3,0.2-0.8,0.2-1.6,0.2c0-0.2-0.1-0.6-0.3-0.9c0.6,0,1.1,0,1.2,0
				c0.2,0,0.2-0.1,0.2-0.2v-3h-1.9c-0.1,1.4-0.3,2.9-0.9,4c-0.2-0.1-0.5-0.3-0.7-0.4c0.8-1.7,0.9-4.1,0.9-5.8v-4.3h3.5V447.8z
				 M150.5,444v-2h-1.8v0.7c0,0.4,0,0.9,0,1.4H150.5z M148.7,439.2v2h1.8v-2H148.7z M157.8,442.6c-0.3,1.6-0.9,3-1.6,4
				c0.6,0.7,1.2,1.2,2,1.6c-0.2,0.2-0.4,0.5-0.6,0.7c-0.7-0.4-1.4-0.9-1.9-1.6c-0.5,0.6-1.2,1.2-1.8,1.5c-0.1-0.2-0.3-0.5-0.5-0.7
				c0.7-0.4,1.3-0.9,1.8-1.5c-0.7-1-1.2-2.1-1.6-3.4h-0.3v5.6h-0.8v-10.5h5.1v2.3c0,0.5-0.1,0.7-0.5,0.8c-0.4,0.1-1,0.1-1.9,0.1
				c0-0.2-0.2-0.5-0.3-0.8c0.7,0,1.4,0,1.5,0c0.2,0,0.2,0,0.2-0.2v-1.5h-3.4v3.2h3.9l0.2,0L157.8,442.6z M154.3,443.3
				c0.3,1,0.8,1.9,1.3,2.7c0.5-0.8,0.9-1.7,1.2-2.7H154.3z"/>
			<path class="st0" d="M168.8,439.5c-0.7,1.1-1.8,1.9-3.2,2.6c1.2,0.4,2.7,0.6,4.3,0.7c-0.2,0.2-0.4,0.6-0.5,0.8
				c-1.8-0.2-3.5-0.5-4.9-1.1c-1.6,0.6-3.4,1-5.1,1.2c-0.1-0.2-0.2-0.6-0.4-0.8c1.5-0.1,3.1-0.4,4.5-0.9c-0.7-0.4-1.3-0.9-1.8-1.4
				c-0.5,0.4-1,0.8-1.6,1.1c-0.1-0.2-0.4-0.5-0.6-0.7c1.7-0.9,2.9-2.1,3.5-3.1l0.9,0.2c-0.2,0.3-0.5,0.7-0.8,1.1h4.8l0.2,0
				L168.8,439.5z M168.9,444.6c0,0,0,0.3,0,0.4c-0.3,2.2-0.5,3.1-0.9,3.4c-0.3,0.2-0.5,0.3-1,0.3c-0.3,0-1.1,0-1.8,0
				c0-0.2-0.1-0.6-0.3-0.8c0.8,0.1,1.5,0.1,1.8,0.1c0.2,0,0.4,0,0.5-0.1c0.3-0.2,0.5-1,0.7-2.5h-3.6c-0.8,1.9-2.2,2.9-4.6,3.5
				c-0.1-0.2-0.3-0.6-0.5-0.8c2.1-0.4,3.4-1.2,4.1-2.7h-3.3v-0.8h3.6c0.1-0.4,0.2-0.8,0.2-1.2l0.9,0.1c-0.1,0.4-0.1,0.8-0.2,1.1
				H168.9z M162.4,440.1c0.5,0.7,1.3,1.2,2.2,1.6c1.1-0.5,2.1-1,2.8-1.7h-4.8L162.4,440.1z"/>
			<path class="st0" d="M174.4,438.1c-0.2,0.6-0.4,1.2-0.6,1.8h2v7.8h-3.3v0.9h-0.8v-8.7h1.3c0.2-0.6,0.4-1.4,0.5-1.9L174.4,438.1z
				 M175,440.7h-2.5v2.5h2.5V440.7z M175,446.8V444h-2.5v2.9H175z M181.6,440.3c-0.2,5.5-0.3,7.3-0.8,7.9c-0.3,0.3-0.5,0.4-0.9,0.5
				c-0.4,0-1.1,0-1.8,0c0-0.3-0.1-0.6-0.3-0.9c0.8,0.1,1.5,0.1,1.8,0.1c0.2,0,0.4,0,0.5-0.2c0.4-0.4,0.6-2.2,0.7-7h-3
				c-0.3,0.8-0.7,1.5-1.1,2.1c-0.2-0.1-0.5-0.4-0.7-0.5c0.8-1.1,1.5-2.7,1.8-4.4l0.9,0.2c-0.1,0.6-0.3,1.2-0.5,1.7h3.6V440.3z
				 M179,445.7c-0.4-0.7-1.2-1.9-1.8-2.8l0.7-0.4c0.7,0.9,1.5,2,1.9,2.7L179,445.7z"/>
			<path class="st0" d="M188,445.6v-3.8h-2.2v5.5h7.7v0.9h-8.6v-6.3h-1.7v-0.9h1.7v-2.7h0.9v2.7h2.2V438h0.9v2.9h2.3v-2.8h0.9v2.8
				h1.8v0.9h-1.8v3.8H188z M188.9,441.8v3h2.3v-3H188.9z"/>
			<path class="st0" d="M202.3,443.1c0.9,0.9,2.3,1.7,3.7,2.1c-0.2,0.2-0.5,0.5-0.6,0.8c-0.9-0.3-1.7-0.7-2.4-1.2v4.1h-0.9v-4.1h0.9
				c-0.7-0.5-1.3-1-1.7-1.6h-1.3c-1,1.3-2.6,2.3-4.2,2.9c-0.1-0.2-0.4-0.6-0.6-0.7c1.4-0.4,2.8-1.2,3.7-2.1h-2.4v-4.8h8.2v4.8H202.3
				z M198.3,444.7h0.9v0.7c0,1.1-0.3,2.6-2.6,3.5c-0.1-0.2-0.4-0.5-0.6-0.7c2.1-0.8,2.3-1.9,2.3-2.8V444.7z M197.3,440.4h2.7v-1.3
				h-2.7V440.4z M197.3,442.4h2.7v-1.3h-2.7V442.4z M203.7,439.1H201v1.3h2.8V439.1z M203.7,441.1H201v1.3h2.8V441.1z"/>
			<path class="st0" d="M217.9,447.7v0.9h-10.6v-0.9h4.8V446h-4v-0.9h4v-1.3h-3.7v-5.4h8.4v5.4h-3.8v1.3h4.1v0.9h-4.1v1.7H217.9z
				 M209.3,440.7h2.8v-1.5h-2.8V440.7z M209.3,443h2.8v-1.5h-2.8V443z M215.9,439.2H213v1.5h2.9V439.2z M215.9,441.5H213v1.5h2.9
				V441.5z"/>
			<path class="st0" d="M223.1,438.2c-0.1,0.2-0.2,0.3-0.2,0.5c1,1,2.2,2.3,2.8,3.2l-0.6,0.6c-0.5-0.8-1.6-2-2.5-3.1
				c-0.8,1.3-1.8,2.5-3,3.4c-0.1-0.2-0.5-0.5-0.6-0.6c1.5-1.1,2.8-2.7,3.4-4.3L223.1,438.2z M223.9,447.9c0.6,0,0.6-0.3,0.7-1.7
				c0.2,0.1,0.5,0.3,0.8,0.3c-0.1,1.7-0.4,2.1-1.4,2.1h-2.2c-1.2,0-1.5-0.3-1.5-1.3v-5.1h4.3c0,0,0,0.3,0,0.4
				c-0.1,2.1-0.2,2.9-0.5,3.2c-0.2,0.2-0.4,0.3-0.7,0.3c-0.2,0-0.7,0-1.2,0c0-0.2-0.1-0.6-0.2-0.8c0.4,0,0.8,0,1,0
				c0.2,0,0.3,0,0.3-0.1c0.1-0.2,0.3-0.8,0.3-2.2h-2.6v4.3c0,0.4,0.1,0.5,0.7,0.5H223.9z M227.1,445.9h-0.9v-6.6h0.9V445.9z
				 M229.4,438.1v9.6c0,0.6-0.2,0.8-0.5,1c-0.4,0.1-1,0.2-2.2,0.2c0-0.2-0.2-0.6-0.3-0.9c0.8,0,1.6,0,1.8,0c0.2,0,0.3-0.1,0.3-0.3
				v-9.6H229.4z"/>
			<path class="st0" d="M233.6,446.8c0.2,0.1,0.5,0.3,0.9,0.6c0.7,0.4,1.8,0.5,3,0.5c1.4,0,3.4-0.1,4.6-0.2
				c-0.1,0.2-0.3,0.7-0.3,0.9c-1,0.1-3.1,0.1-4.4,0.1c-1.4,0-2.4-0.1-3.2-0.5c-0.4-0.3-0.8-0.6-1-0.6c-0.4,0-1,0.6-1.6,1.2l-0.6-0.8
				c0.5-0.5,1.1-0.9,1.6-1.1v-3.6h-1.6v-0.8h2.4V446.8z M233.2,440.8c-0.3-0.5-1.1-1.4-1.8-1.9l0.7-0.5c0.7,0.6,1.5,1.3,1.8,1.9
				L233.2,440.8z M235.8,440.2c-0.3,0.5-0.5,0.9-0.8,1.2c-0.2-0.1-0.6-0.3-0.7-0.4c0.7-0.7,1.3-1.8,1.6-2.9l0.8,0.2
				c-0.1,0.4-0.3,0.8-0.4,1.2h1.5V438h0.9v1.5h2.8v0.8h-2.8v1.5h3.3v0.8h-7.6v-0.8h3.4v-1.5H235.8z M235.2,446.8v-3.3h5.8v3.3H235.2
				z M236,446.1h4.1v-1.9H236V446.1z"/>
			<path class="st0" d="M246.7,444l-1.3,0.4v3.4c0,0.5-0.1,0.7-0.4,0.9c-0.3,0.1-0.7,0.2-1.5,0.2c0-0.2-0.1-0.6-0.3-0.8
				c0.5,0,1,0,1.1,0c0.2,0,0.2,0,0.2-0.2v-3.2c-0.5,0.2-1,0.3-1.5,0.5l-0.2-0.9c0.5-0.1,1.1-0.3,1.7-0.5v-2.6h-1.5v-0.8h1.5v-2.4
				h0.8v2.4h1.3v0.8h-1.3v2.4l1.2-0.4L246.7,444z M252.5,442.6v1.3h1.5v0.8h-1.5v3c0,0.6-0.1,0.8-0.5,0.9c-0.4,0.1-0.9,0.2-1.8,0.2
				c0-0.3-0.2-0.6-0.3-0.9c0.7,0,1.3,0,1.5,0c0.2,0,0.2-0.1,0.2-0.2v-3H247V444h4.6v-1.3h-4.7v-0.8h3.2v-1.5h-2.5v-0.8h2.5V438h0.9
				v1.5h2.6v0.8h-2.6v1.5h3.1v0.8H252.5z M248.6,445.1c0.5,0.6,1.1,1.5,1.4,2.1l-0.7,0.4c-0.2-0.6-0.8-1.5-1.3-2.1L248.6,445.1z"/>
			<path class="st0" d="M258.7,444c0,0.2,0,0.6,0,0.7c-2.8,0.8-3.2,0.9-3.4,1.1c0-0.2-0.2-0.5-0.3-0.8c0.2,0,0.5-0.3,0.9-0.8
				c0.2-0.2,0.7-0.9,1.2-1.6c-1.4,0.2-1.7,0.3-1.8,0.3c0-0.2-0.2-0.6-0.3-0.8c0.2,0,0.4-0.3,0.7-0.7c0.3-0.4,1.1-2,1.6-3.4l0.8,0.4
				c-0.5,1.3-1.2,2.6-1.9,3.6l1.4-0.1c0.3-0.4,0.5-0.9,0.7-1.3l0.7,0.4c-0.7,1.3-1.5,2.6-2.4,3.6L258.7,444z M258.9,446.7
				c-1.2,0.5-2.6,1-3.6,1.4l-0.2-0.8c0.9-0.3,2.3-0.8,3.6-1.3L258.9,446.7z M262.8,445.7c-0.4,1.2-1.4,2.3-3.4,3.2
				c-0.1-0.2-0.3-0.5-0.5-0.7c1.7-0.7,2.6-1.6,3-2.5h-2.8v-0.8h3c0.1-0.5,0.1-1,0.1-1.4v-1.4h0.8v1.4c0,0.5,0,0.9-0.1,1.4h2.7v0.8
				H262.8z M264.2,443.1c0.2-0.4,0.4-0.9,0.5-1.4h-5.4v-0.8h2.6v-1.1h-2.2V439h2.2v-1.1h0.9v1.1h2.3v0.8h-2.3v1.1h2.2l0.1,0l0.6,0.2
				c-0.3,0.8-0.6,1.7-0.9,2.3L264.2,443.1z M259.8,443.2c0.5,0.3,1.2,0.8,1.5,1.1l-0.4,0.5c-0.3-0.3-1-0.8-1.5-1.2L259.8,443.2z
				 M261.7,443.7c-0.3-0.3-0.9-0.8-1.5-1.1l0.4-0.4c0.5,0.3,1.2,0.7,1.5,1L261.7,443.7z M263.3,446.2c0.9,0.6,2.1,1.5,2.6,2.2
				l-0.6,0.6c-0.5-0.6-1.7-1.6-2.6-2.2L263.3,446.2z"/>
			<path class="st0" d="M266.9,443.3c0.3-0.8,0.5-2.1,0.6-3.1l0.7,0.1c-0.1,1-0.3,2.3-0.6,3.2L266.9,443.3z M268.6,437.9h0.9v10.9
				h-0.9V437.9z M270.2,439.9c0.4,0.6,0.7,1.5,0.9,2l-0.7,0.3c-0.1-0.5-0.5-1.4-0.8-2L270.2,439.9z M277.9,447.6v0.9h-7.3v-0.9h3.4
				v-3h-2.5v-0.8h2.5v-2.5h-1.8c-0.2,0.7-0.5,1.3-0.8,1.9c-0.2-0.1-0.6-0.3-0.8-0.4c0.7-1,1.2-2.7,1.5-4.3l0.9,0.1
				c-0.1,0.6-0.3,1.2-0.4,1.8h1.5V438h0.9v2.5h2.7v0.9h-2.7v2.5h2.4v0.8h-2.4v3H277.9z"/>
			<path class="st0" d="M282.4,438.1c-0.2,0.6-0.4,1.2-0.6,1.8h2v7.8h-3.3v0.9h-0.8v-8.7h1.3c0.2-0.6,0.4-1.4,0.5-1.9L282.4,438.1z
				 M283,440.7h-2.5v2.5h2.5V440.7z M283,446.8V444h-2.5v2.9H283z M289.6,440.3c-0.2,5.5-0.3,7.3-0.8,7.9c-0.3,0.3-0.5,0.4-0.9,0.5
				c-0.4,0-1.1,0-1.8,0c0-0.3-0.1-0.6-0.3-0.9c0.8,0.1,1.5,0.1,1.8,0.1c0.2,0,0.4,0,0.5-0.2c0.4-0.4,0.6-2.2,0.7-7h-3
				c-0.3,0.8-0.7,1.5-1.1,2.1c-0.2-0.1-0.5-0.4-0.7-0.5c0.8-1.1,1.5-2.7,1.8-4.4l0.9,0.2c-0.1,0.6-0.3,1.2-0.5,1.7h3.6V440.3z
				 M287,445.7c-0.4-0.7-1.2-1.9-1.8-2.8l0.7-0.4c0.7,0.9,1.5,2,1.9,2.7L287,445.7z"/>
			<path class="st0" d="M294.6,438.2c-0.3,0.9-0.7,1.8-1.2,2.6v8.1h-0.9v-6.6c-0.3,0.5-0.7,0.9-1,1.3c-0.1-0.2-0.4-0.7-0.5-0.9
				c1.1-1.2,2.1-3,2.7-4.8L294.6,438.2z M298.6,438.1c-0.1,0.2-0.2,0.4-0.3,0.5c0.9,1.4,2.4,2.9,3.8,3.6c-0.2,0.2-0.5,0.5-0.6,0.7
				c-1.3-0.7-2.6-2.1-3.6-3.5c-0.8,1.4-2.1,2.7-3.8,3.7c-0.1-0.2-0.4-0.5-0.6-0.7c2.1-1.2,3.4-3,4-4.5L298.6,438.1z M295.8,442.6
				h0.9v1.6c0,1.4-0.2,3.3-2.1,4.8c-0.1-0.2-0.4-0.5-0.6-0.6c1.7-1.2,1.9-3,1.9-4.1V442.6z M299.2,442.6h0.9v6.3h-0.9V442.6z"/>
			<path class="st0" d="M306.5,438.2c-0.3,0.9-0.7,1.9-1.2,2.7v7.9h-0.8v-6.6c-0.3,0.5-0.7,0.9-1,1.3c-0.1-0.2-0.3-0.7-0.5-0.9
				c1.1-1.2,2.1-2.9,2.8-4.8L306.5,438.2z M314,447.8v0.8h-8v-0.8h1.1v-6.7h2.1c0.1-0.3,0.1-0.7,0.2-1.1h-2.9v-0.8h3.1
				c0.1-0.4,0.1-0.9,0.2-1.2l0.9,0.1c-0.1,0.4-0.1,0.8-0.2,1.2h3.2v0.8h-3.4c-0.1,0.4-0.2,0.8-0.3,1.1h2.9v6.7H314z M307.9,441.8v1
				h4.2v-1H307.9z M312.1,443.4h-4.2v1h4.2V443.4z M307.9,446.1h4.2v-1h-4.2V446.1z M307.9,447.8h4.2v-1h-4.2V447.8z"/>
		</g>
		<g>
			<path class="st0" d="M5.5,372.2h14c1.7,0,3,1.3,3,3l0,0c0,1.7-1.3,3-3,3h-14c-1.7,0-3-1.3-3-3l0,0C2.5,373.5,3.9,372.2,5.5,372.2
				z"/>
		</g>
		<g>
			<path class="st0" d="M45.6,260.8c0-0.7-0.5-1.4-1.3-1.4H26.5c-0.7,0-1.3,0.7-1.3,1.4v5.7H12.5v4.3h45.8v-4.3H45.6V260.8z
				 M64.1,208.7H6.8c-2.4,0-4.3,1.9-4.3,4.3V253c0,2.4,1.9,4.3,4.3,4.3c0,0,0,0,0,0h57.2c2.4,0,4.3-1.9,4.3-4.3c0,0,0,0,0,0v-40.1
				C68.4,210.6,66.4,208.6,64.1,208.7C64.1,208.6,64.1,208.6,64.1,208.7z M64.1,251.6c0,0.8-0.6,1.4-1.4,1.4c0,0,0,0,0,0H8.3
				c-0.8,0-1.4-0.6-1.4-1.4v-37.2c0-0.8,0.6-1.4,1.4-1.4h54.4c0.8,0,1.4,0.6,1.4,1.4L64.1,251.6z M49.4,248.8h7.7v-22.5h-7.7V248.8z
				 M37,248.8h7.7v-29.5H37L37,248.8z M13.8,248.8h7.7v-8.7h-7.7L13.8,248.8z M24.6,248.8h7.7v-15.6h-7.7L24.6,248.8z"/>
		</g>
		<g>
			<path class="st0" d="M232.8,212.5c0-1.6-1.3-2.9-2.9-2.9h-11.7c-1.6,0-2.9,1.3-2.9,2.9c0,1.6,1.3,2.9,2.9,2.9h4.7l-12,12
				l-18.7-6.7c-0.9-0.3-1.8-0.2-2.6,0.3l-19.9,14c-1.3,0.9-1.6,2.8-0.7,4.1c0.6,0.7,1.5,1.1,2.5,1.2c0.6,0,1.2-0.2,1.6-0.6l18.4-13
				l19,6.9c1.1,0.4,2.3,0.1,3.1-0.7l13.3-13.3v5.4c0.1,1.6,1.5,2.8,3.1,2.8c1.5-0.1,2.7-1.3,2.8-2.8v-12
				C232.7,212.8,232.8,212.6,232.8,212.5L232.8,212.5z"/>
		</g>
		<g>
			<path class="st0" d="M229.9,237.3c-1.6,0-2.9,1.3-2.9,2.9v24.8h-13.2v-19c-0.1-1.6-1.5-2.8-3.1-2.8c-1.5,0.1-2.7,1.3-2.8,2.8v19
				h-13.1v-26.3c0-1.6-1.3-2.9-2.9-2.9c-1.6,0-2.9,1.3-2.9,2.9c0,0,0,0,0,0v26.3h-14.6v-13.2c0-1.6-1.3-2.9-2.9-2.9
				c-1.6,0-2.9,1.3-2.9,2.9v17c0,0.1,0,0.1,0.1,0.3s0,0.1,0.1,0.3c0.4,0.7,1.1,1.2,1.9,1.3h58.9c0.3,0,0.5,0,0.7-0.1h0.1
				c0.1,0,0.3-0.1,0.4-0.1c0.1,0,0.1-0.1,0.1-0.1c0.1-0.1,0.3-0.1,0.4-0.3c0.1,0,0.1-0.1,0.1-0.1l0,0l0.4-0.4c0-0.1,0.1-0.1,0.1-0.1
				c0.1-0.1,0.2-0.3,0.1-0.4c0-0.1,0-0.1,0.1-0.3c0-0.2,0-0.3,0.1-0.4v-28c0.1-1.5-1-2.8-2.5-2.9C230,237.3,229.9,237.3,229.9,237.3
				L229.9,237.3z"/>
		</g>
		<g>
			<rect x="102.7" y="234.6" class="st0" width="32" height="6"/>
		</g>
		<g>
			<rect x="115.7" y="221.6" class="st0" width="6" height="32"/>
		</g>
		<g class="st1">
			<path class="st0" d="M4.7,97.7h3.6v7H15v-7h3.5v17.8H15v-7.7H8.3v7.7H4.7V97.7z"/>
			<path class="st0" d="M22.5,110.4V102H26v7.9c0,2.1,0.6,2.8,1.9,2.8c1.1,0,1.8-0.5,2.7-1.7V102h3.5v13.4h-2.9l-0.3-1.9h-0.1
				c-1.2,1.4-2.4,2.3-4.3,2.3C23.7,115.8,22.5,113.8,22.5,110.4z"/>
			<path class="st0" d="M37.2,111.8c0-2.9,2.3-4.4,7.7-5c0-1.3-0.6-2.3-2.3-2.3c-1.2,0-2.4,0.6-3.7,1.3l-1.3-2.3
				c1.6-1,3.5-1.8,5.6-1.8c3.4,0,5.2,2,5.2,5.9v7.8h-2.9l-0.3-1.4h-0.1c-1.2,1-2.5,1.8-4.1,1.8C38.8,115.8,37.2,114.1,37.2,111.8z
				 M44.9,111.7V109c-3.3,0.4-4.4,1.3-4.4,2.5c0,1.1,0.7,1.5,1.8,1.5C43.4,113,44.1,112.6,44.9,111.7z"/>
			<path class="st0" d="M52.4,97.7h5.9c3.6,0,6.4,1.1,6.4,4.4c0,1.6-0.9,3.3-2.4,3.8v0.1c1.9,0.5,3.3,1.8,3.3,4.2
				c0,3.6-3,5.2-6.9,5.2h-6.3V97.7z M58,104.9c2.3,0,3.2-0.9,3.2-2.3c0-1.6-1.1-2.2-3.2-2.2h-2.1v4.5H58z M58.4,112.7
				c2.4,0,3.7-0.9,3.7-2.7c0-1.7-1.3-2.4-3.7-2.4h-2.5v5.2H58.4z"/>
			<path class="st0" d="M67.7,111.8c0-2.9,2.3-4.4,7.7-5c0-1.3-0.6-2.3-2.3-2.3c-1.2,0-2.4,0.6-3.7,1.3l-1.3-2.3
				c1.6-1,3.5-1.8,5.6-1.8c3.4,0,5.2,2,5.2,5.9v7.8h-2.9l-0.3-1.4h-0.1c-1.2,1-2.5,1.8-4.1,1.8C69.3,115.8,67.7,114.1,67.7,111.8z
				 M75.5,111.7V109c-3.3,0.4-4.4,1.3-4.4,2.5c0,1.1,0.7,1.5,1.8,1.5C73.9,113,74.6,112.6,75.5,111.7z"/>
			<path class="st0" d="M81.8,108.8c0-4.5,3.1-7.1,6.5-7.1s6.5,2.6,6.5,7.1c0,4.4-3.1,7-6.5,7S81.8,113.2,81.8,108.8z M91.1,108.8
				c0-2.5-1-4.2-2.9-4.2s-2.9,1.7-2.9,4.2c0,2.5,1,4.2,2.9,4.2S91.1,111.3,91.1,108.8z"/>
		</g>
		<g class="st1">
			<path class="st0" d="M106.9,100.7h-5v-3h13.6v3h-5v14.8h-3.6V100.7z"/>
		</g>
		<g class="st1">
			<path class="st0" d="M115.2,108.8c0-4.4,3-7.1,6.3-7.1c3.7,0,5.6,2.7,5.6,6.4c0,0.6-0.1,1.3-0.2,1.6h-8.3
				c0.3,2.2,1.7,3.4,3.7,3.4c1.1,0,2.1-0.3,3-0.9l1.2,2.2c-1.3,0.9-3,1.5-4.7,1.5C118.2,115.8,115.2,113.2,115.2,108.8z
				 M124.1,107.4c0-1.8-0.8-3-2.5-3c-1.4,0-2.7,1-2.9,3H124.1z"/>
			<path class="st0" d="M129.2,108.8c0-4.5,3.2-7.1,6.9-7.1c1.7,0,2.9,0.6,3.9,1.5l-1.7,2.3c-0.7-0.6-1.3-0.9-2.1-0.9
				c-2,0-3.4,1.7-3.4,4.2c0,2.5,1.4,4.2,3.3,4.2c1,0,1.9-0.5,2.6-1.1l1.4,2.3c-1.3,1.1-2.9,1.6-4.4,1.6
				C132,115.8,129.2,113.2,129.2,108.8z"/>
			<path class="st0" d="M142.7,96.3h3.5v4.8l-0.1,2.5c1.1-1,2.4-2,4.2-2c2.9,0,4.2,2,4.2,5.4v8.4h-3.5v-7.9c0-2.1-0.6-2.8-1.9-2.8
				c-1.1,0-1.8,0.5-2.8,1.5v9.2h-3.5V96.3z"/>
		</g>
	</g>
</g>
</svg>
